<?xml version="1.0" standalone="no"?>
<!DOCTYPE svg PUBLIC "-//W3C//DTD SVG 20010904//EN"
 "http://www.w3.org/TR/2001/REC-SVG-20010904/DTD/svg10.dtd">
<svg version="1.0" xmlns="http://www.w3.org/2000/svg"
 width="100.000000pt" height="100.000000pt" viewBox="0 0 100.000000 100.000000"
 preserveAspectRatio="xMidYMid meet">

<g transform="translate(0.000000,100.000000) scale(0.100000,-0.100000)"
fill="#000000" stroke="none">
<path d="M505 870 c-14 -28 -23 -55 -20 -60 4 -6 87 -10 201 -10 l194 0 0
-280 0 -279 -157 -3 c-133 -3 -158 -5 -158 -18 0 -13 26 -15 175 -15 l175 0 3
308 2 307 -25 50 -25 50 -170 0 -170 0 -25 -50z m355 -10 c11 -20 8 -20 -160
-20 -168 0 -171 0 -160 20 10 19 21 20 160 20 139 0 150 -1 160 -20z"/>
<path d="M105 750 l-25 -50 2 -307 3 -308 215 0 215 0 3 308 2 307 -25 50 -25
50 -170 0 -170 0 -25 -50z m355 -10 c11 -20 8 -20 -160 -20 -168 0 -171 0
-160 20 10 19 21 20 160 20 139 0 150 -1 160 -20z m20 -340 l0 -280 -180 0
-180 0 0 280 0 280 180 0 180 0 0 -280z"/>
<path d="M164 627 c-2 -7 -3 -60 -2 -118 l3 -104 135 0 135 0 0 115 0 115
-133 3 c-104 2 -134 0 -138 -11z m236 -57 l0 -30 -100 0 -100 0 0 30 0 30 100
0 100 0 0 -30z m0 -100 l0 -30 -100 0 -100 0 0 30 0 30 100 0 100 0 0 -30z"/>
<path d="M284 309 c-10 -17 13 -36 27 -22 12 12 4 33 -11 33 -5 0 -12 -5 -16
-11z"/>
<path d="M284 229 c-10 -17 13 -36 27 -22 12 12 4 33 -11 33 -5 0 -12 -5 -16
-11z"/>
<path d="M564 747 c-2 -7 -3 -60 -2 -118 l3 -104 135 0 135 0 0 115 0 115
-133 3 c-104 2 -134 0 -138 -11z m236 -57 l0 -30 -100 0 -100 0 0 30 0 30 100
0 100 0 0 -30z m0 -100 l0 -30 -100 0 -100 0 0 30 0 30 100 0 100 0 0 -30z"/>
<path d="M684 429 c-10 -17 13 -36 27 -22 12 12 4 33 -11 33 -5 0 -12 -5 -16
-11z"/>
<path d="M684 349 c-10 -17 13 -36 27 -22 12 12 4 33 -11 33 -5 0 -12 -5 -16
-11z"/>
</g>
</svg>
